<svg width="110" height="31" viewBox="0 0 110 31" fill="none" xmlns="http://www.w3.org/2000/svg">
<path d="M6.79688 30.8438C6.02604 30.8438 5.32292 30.7396 4.6875 30.5312C4.05208 30.3229 3.50521 30.026 3.04688 29.6406C2.58854 29.2552 2.23438 28.7917 1.98438 28.25C1.73438 27.7083 1.60938 27.1198 1.60938 26.4844C1.60938 25.8698 1.71875 25.2917 1.9375 24.75C2.15625 24.2188 2.46354 23.7448 2.85938 23.3281C3.24479 22.9219 3.70312 22.6094 4.23438 22.3906C4.76562 22.1615 5.32812 22.0469 5.92188 22.0469C6.74479 22.0469 7.40104 22.2448 7.89062 22.6406C8.39062 23.0365 8.64062 23.5729 8.64062 24.25C8.64062 24.7604 8.52604 25.1667 8.29688 25.4688C8.09896 25.2083 7.83333 25.0052 7.5 24.8594C7.17708 24.7135 6.83333 24.6406 6.46875 24.6406C5.8125 24.6406 5.29167 24.849 4.90625 25.2656C4.5 25.6927 4.29688 26.25 4.29688 26.9375C4.29688 27.6146 4.49479 28.1667 4.89062 28.5938C5.27604 29.0312 5.77083 29.25 6.375 29.25C7.11458 29.25 7.75 28.9167 8.28125 28.25C8.8125 27.5938 9.22396 26.6146 9.51562 25.3125L11.1094 18.2344H10.9844C10.3906 19.0469 9.68229 19.6667 8.85938 20.0938C8.04688 20.5208 7.15625 20.7344 6.1875 20.7344C5.25 20.7344 4.40104 20.5469 3.64062 20.1719C2.88021 19.7865 2.22917 19.2396 1.6875 18.5312C1.14583 17.8229 0.729167 16.9688 0.4375 15.9688C0.145833 14.9688 0 13.8594 0 12.6406C0 11.4635 0.130208 10.3333 0.390625 9.25C0.661458 8.15625 1.05208 7.13542 1.5625 6.1875C2.58333 4.27083 3.97396 2.77083 5.73438 1.6875C7.54688 0.5625 9.53125 0 11.6875 0C12.5833 0 13.3958 0.104167 14.125 0.3125C14.8646 0.510417 15.4896 0.796875 16 1.17188C16.5104 1.55729 16.901 2.02604 17.1719 2.57812C17.4427 3.11979 17.5781 3.72917 17.5781 4.40625C17.5781 5.3125 17.3542 6.04688 16.9062 6.60938C16.6875 6.88021 16.4219 7.08854 16.1094 7.23438C15.8073 7.38021 15.4844 7.45312 15.1406 7.45312C14.7448 7.45312 14.3698 7.36979 14.0156 7.20312C13.6615 7.02604 13.3646 6.77604 13.125 6.45312C13.5 6.20312 13.8229 5.79167 14.0938 5.21875C14.3646 4.64583 14.5 4.07812 14.5 3.51562C14.5 2.86979 14.3125 2.375 13.9375 2.03125C13.5729 1.67708 13.0469 1.5 12.3594 1.5C11.7344 1.5 11.1146 1.64583 10.5 1.9375C9.89583 2.22917 9.3125 2.64062 8.75 3.17188C8.19792 3.69271 7.6875 4.31771 7.21875 5.04688C6.75 5.76562 6.34896 6.54688 6.01562 7.39062C5.29688 9.17188 4.9375 11.0469 4.9375 13.0156C4.9375 14.6302 5.1875 15.8594 5.6875 16.7031C6.19792 17.5365 6.9375 17.9531 7.90625 17.9531C9.07292 17.9531 10.0885 17.3542 10.9531 16.1562C11.8281 14.9479 12.5417 13.1667 13.0938 10.8125L16.875 10.8438L14.5312 21.5938C13.8438 24.7604 12.8802 27.099 11.6406 28.6094C10.401 30.099 8.78646 30.8438 6.79688 30.8438ZM20.0781 8.21875H24.6875L24.2812 10.2031C25.0104 9.55729 25.6042 9.09896 26.0625 8.82812C26.7708 8.42188 27.4635 8.21875 28.1406 8.21875C28.8281 8.21875 29.3802 8.46354 29.7969 8.95312C29.9844 9.17188 30.125 9.42708 30.2188 9.71875C30.3125 10 30.3594 10.3021 30.3594 10.625C30.3594 10.9167 30.3125 11.1979 30.2188 11.4688C30.125 11.7396 29.9844 11.9844 29.7969 12.2031C29.5885 12.4323 29.3333 12.6146 29.0312 12.75C28.7396 12.8854 28.4115 12.9531 28.0469 12.9531C27.7656 12.9531 27.5417 12.9062 27.375 12.8125C27.2083 12.7188 27.0781 12.5833 26.9844 12.4062C26.901 12.2292 26.8438 12.0573 26.8125 11.8906C26.7188 11.4427 26.625 11.1458 26.5312 11C26.4583 10.8958 26.3438 10.8438 26.1875 10.8438C25.7396 10.8438 25.3594 10.9375 25.0469 11.125C24.7344 11.3125 24.3385 11.625 23.8594 12.0625L21.2969 24.2188H16.6875L20.0781 8.21875ZM34.5156 24.4062C32.9427 24.4062 31.7292 24.0104 30.875 23.2188C29.9688 22.375 29.5156 21.0781 29.5156 19.3281C29.5156 18.6719 29.5833 17.9427 29.7188 17.1406C29.8438 16.3385 30.0365 15.5365 30.2969 14.7344C30.5885 13.8385 30.9583 12.9896 31.4062 12.1875C31.8646 11.3854 32.3958 10.6771 33 10.0625C34.3958 8.64583 36.1146 7.9375 38.1562 7.9375C39.4583 7.9375 40.4062 8.25 41 8.875C41.4583 9.36458 41.6875 10.0729 41.6875 11C41.6875 11.9062 41.4896 12.7604 41.0938 13.5625C40.6979 14.3542 40.151 15.0573 39.4531 15.6719C38.7552 16.276 37.9635 16.7604 37.0781 17.125C36.1927 17.4792 35.276 17.6875 34.3281 17.75C34.276 18.2917 34.25 18.7188 34.25 19.0312C34.25 20.0729 34.4479 20.7917 34.8438 21.1875C35.1875 21.5417 35.7604 21.7188 36.5625 21.7188C37.7188 21.7188 38.776 21.4062 39.7344 20.7812C40.1406 20.5208 40.5312 20.2135 40.9062 19.8594C41.2812 19.4948 41.7188 19.0365 42.2188 18.4844H43.3125C42.3021 20.1927 41.1406 21.5521 39.8281 22.5625C38.2135 23.7917 36.4427 24.4062 34.5156 24.4062ZM34.5781 16.2188C35.1719 16.1771 35.75 16.0052 36.3125 15.7031C36.875 15.401 37.375 15.0052 37.8125 14.5156C38.25 14.0156 38.5938 13.4583 38.8438 12.8438C39.0938 12.2188 39.2188 11.5833 39.2188 10.9375C39.2188 10.5104 39.1562 10.1875 39.0312 9.96875C38.9167 9.73958 38.7135 9.625 38.4219 9.625C38.0365 9.625 37.6458 9.8125 37.25 10.1875C36.8646 10.5625 36.4896 11.0781 36.125 11.7344C35.7917 12.349 35.4896 13.0469 35.2188 13.8281C34.9479 14.6094 34.7344 15.4062 34.5781 16.2188ZM46.7969 24.4062C45.224 24.4062 44.0104 24.0104 43.1562 23.2188C42.25 22.375 41.7969 21.0781 41.7969 19.3281C41.7969 18.6719 41.8646 17.9427 42 17.1406C42.125 16.3385 42.3177 15.5365 42.5781 14.7344C42.8698 13.8385 43.2396 12.9896 43.6875 12.1875C44.1458 11.3854 44.6771 10.6771 45.2812 10.0625C46.6771 8.64583 48.3958 7.9375 50.4375 7.9375C51.7396 7.9375 52.6875 8.25 53.2812 8.875C53.7396 9.36458 53.9688 10.0729 53.9688 11C53.9688 11.9062 53.7708 12.7604 53.375 13.5625C52.9792 14.3542 52.4323 15.0573 51.7344 15.6719C51.0365 16.276 50.2448 16.7604 49.3594 17.125C48.474 17.4792 47.5573 17.6875 46.6094 17.75C46.5573 18.2917 46.5312 18.7188 46.5312 19.0312C46.5312 20.0729 46.7292 20.7917 47.125 21.1875C47.4688 21.5417 48.0417 21.7188 48.8438 21.7188C50 21.7188 51.0573 21.4062 52.0156 20.7812C52.4219 20.5208 52.8125 20.2135 53.1875 19.8594C53.5625 19.4948 54 19.0365 54.5 18.4844H55.5938C54.5833 20.1927 53.4219 21.5521 52.1094 22.5625C50.4948 23.7917 48.724 24.4062 46.7969 24.4062ZM46.8594 16.2188C47.4531 16.1771 48.0312 16.0052 48.5938 15.7031C49.1562 15.401 49.6562 15.0052 50.0938 14.5156C50.5312 14.0156 50.875 13.4583 51.125 12.8438C51.375 12.2188 51.5 11.5833 51.5 10.9375C51.5 10.5104 51.4375 10.1875 51.3125 9.96875C51.1979 9.73958 50.9948 9.625 50.7031 9.625C50.3177 9.625 49.9271 9.8125 49.5312 10.1875C49.1458 10.5625 48.7708 11.0781 48.4062 11.7344C48.0729 12.349 47.7708 13.0469 47.5 13.8281C47.2292 14.6094 47.0156 15.4062 46.8594 16.2188ZM66.0469 24.4062C64.724 24.4062 63.7448 24.0312 63.1094 23.2812C62.5573 22.6354 62.2812 21.8073 62.2812 20.7969C62.2812 20.3177 62.3385 19.7604 62.4531 19.125C62.5781 18.4896 62.7604 17.6719 63 16.6719C63.2396 15.651 63.4167 14.8385 63.5312 14.2344C63.6562 13.6198 63.7188 13.0885 63.7188 12.6406C63.7188 11.5469 63.3333 11 62.5625 11C62.0208 11 61.5208 11.2865 61.0625 11.8594C60.6771 12.349 60.3438 13.0469 60.0625 13.9531L57.8906 24.2188H53.2812L56.6719 8.21875H61.2812L60.9375 9.875C61.5625 9.17708 62.2344 8.6875 62.9531 8.40625C63.4844 8.19792 64.0573 8.09375 64.6719 8.09375C65.7552 8.09375 66.6094 8.375 67.2344 8.9375C67.901 9.55208 68.2344 10.474 68.2344 11.7031C68.2344 12.4427 68.099 13.4062 67.8281 14.5938C67.7552 14.9375 67.6354 15.4531 67.4688 16.1406C67.1667 17.2969 66.9479 18.2188 66.8125 18.9062C66.7292 19.3438 66.6875 19.6979 66.6875 19.9688C66.6875 20.3958 66.7812 20.7292 66.9688 20.9688C67.1667 21.1979 67.5 21.3125 67.9688 21.3125C68.6042 21.3125 69.1406 21.0521 69.5781 20.5312C69.9115 20.1354 70.2708 19.4531 70.6562 18.4844H72C71.2083 20.8281 70.2083 22.4688 69 23.4062C68.1458 24.0729 67.1615 24.4062 66.0469 24.4062ZM83.0469 24.7656C82.1615 24.7656 81.4635 24.6146 80.9531 24.3125C80.2344 23.8958 79.875 23.2552 79.875 22.3906C79.875 21.8177 80.0104 21.1979 80.2812 20.5312C80.6771 20.9583 81.0417 21.2604 81.375 21.4375C81.7083 21.6042 82.0625 21.6875 82.4375 21.6875C83.5 21.6875 84.3177 21.0312 84.8906 19.7188C85.1302 19.1875 85.3073 18.5885 85.4219 17.9219C85.5365 17.2448 85.5938 16.5833 85.5938 15.9375C85.5938 14.7083 85.3802 13.75 84.9531 13.0625C84.4427 12.2604 83.6458 11.8594 82.5625 11.8594C81.9896 11.8594 81.5 11.8958 81.0938 11.9688L78.4688 24.2188H73.8594L78.2031 3.85938L82.9375 3.23438L81.4375 10.3281H81.625C82.2396 10.3281 82.8281 10.1771 83.3906 9.875C83.9531 9.57292 84.4479 9.16146 84.875 8.64062C85.2917 8.13021 85.6198 7.56771 85.8594 6.95312C86.1094 6.33854 86.2344 5.73438 86.2344 5.14062C86.2344 4.68229 86.151 4.25 85.9844 3.84375C85.8281 3.42708 85.5885 3.0625 85.2656 2.75C84.526 2.04167 83.4427 1.6875 82.0156 1.6875C80.7031 1.6875 79.4583 1.96875 78.2812 2.53125C76.9688 3.16667 75.9635 4.02604 75.2656 5.10938C74.4323 6.36979 74.0156 7.82292 74.0156 9.46875C74.0156 10.1562 74.0938 10.6875 74.25 11.0625C74.2917 11.1979 74.3438 11.3177 74.4062 11.4219C74.4479 11.4948 74.4688 11.5677 74.4688 11.6406C73.3333 11.6406 72.4792 11.4167 71.9062 10.9688C71.3333 10.5104 71.0469 9.75521 71.0469 8.70312C71.0469 7.24479 71.6042 5.85417 72.7188 4.53125C73.2396 3.90625 73.8594 3.33333 74.5781 2.8125C75.3073 2.28125 76.1042 1.82292 76.9688 1.4375C78.7917 0.625 80.6875 0.21875 82.6562 0.21875C84.8542 0.21875 86.5781 0.739583 87.8281 1.78125C88.3698 2.23958 88.776 2.77604 89.0469 3.39062C89.3281 3.99479 89.4688 4.63542 89.4688 5.3125C89.4688 6.32292 89.1979 7.26042 88.6562 8.125C88.0521 9.08333 87.2552 9.83854 86.2656 10.3906C87.5469 10.6198 88.5208 11.2396 89.1875 12.25C89.7604 13.1354 90.0469 14.2344 90.0469 15.5469C90.0469 16.0885 89.9948 16.6875 89.8906 17.3438C89.7865 18 89.6302 18.651 89.4219 19.2969C88.9115 20.901 88.1875 22.1562 87.25 23.0625C86.0833 24.1979 84.6823 24.7656 83.0469 24.7656ZM96.5312 6.48438C96.1875 6.48438 95.8594 6.42188 95.5469 6.29688C95.2344 6.16146 94.9635 5.97917 94.7344 5.75C94.5052 5.53125 94.3229 5.26562 94.1875 4.95312C94.0625 4.64062 94 4.3125 94 3.96875C94 3.625 94.0625 3.29688 94.1875 2.98438C94.3229 2.67188 94.5052 2.39583 94.7344 2.15625C94.9635 1.91667 95.2344 1.73438 95.5469 1.60938C95.8594 1.47396 96.1875 1.40625 96.5312 1.40625C96.875 1.40625 97.2031 1.47396 97.5156 1.60938C97.8281 1.73438 98.1042 1.91667 98.3438 2.15625C98.5833 2.39583 98.7656 2.67188 98.8906 2.98438C99.026 3.29688 99.0938 3.625 99.0938 3.96875C99.0938 4.3125 99.026 4.64062 98.8906 4.95312C98.7656 5.26562 98.5833 5.53125 98.3438 5.75C98.1042 5.97917 97.8281 6.16146 97.5156 6.29688C97.2031 6.42188 96.875 6.48438 96.5312 6.48438ZM94.3594 24.4062C93.3385 24.4062 92.5312 24.1042 91.9375 23.5C91.2708 22.8333 90.9375 21.8594 90.9375 20.5781C90.9375 19.974 91.0208 19.276 91.1875 18.4844L93.3594 8.21875H97.9688L95.6719 19.0938C95.5885 19.3646 95.5469 19.7083 95.5469 20.125C95.5469 20.5625 95.6458 20.8698 95.8438 21.0469C96.0521 21.224 96.3854 21.3125 96.8438 21.3125C97.1562 21.3125 97.4583 21.2448 97.75 21.1094C98.0521 20.9635 98.3281 20.7656 98.5781 20.5156C99.0885 20.0052 99.474 19.3281 99.7344 18.4844H101.078C100.505 20.099 99.7865 21.3854 98.9219 22.3438C98.1927 23.125 97.3698 23.6875 96.4531 24.0312C95.7865 24.2812 95.0885 24.4062 94.3594 24.4062ZM102.922 24.4062C101.901 24.4062 101.094 24.1042 100.5 23.5C99.8333 22.8333 99.5 21.8594 99.5 20.5781C99.5 19.974 99.5833 19.276 99.75 18.4844L101.672 9.5H100.609L100.875 8.21875H101.922L102.891 3.79688L107.625 3.15625L106.531 8.21875H108.453L108.203 9.5H106.281L104.234 19.0938C104.151 19.3646 104.109 19.7083 104.109 20.125C104.109 20.5625 104.208 20.8698 104.406 21.0469C104.615 21.224 104.948 21.3125 105.406 21.3125C105.719 21.3125 106.021 21.2448 106.312 21.1094C106.615 20.9635 106.891 20.7656 107.141 20.5156C107.651 20.0052 108.036 19.3281 108.297 18.4844H109.641C109.068 20.099 108.349 21.3854 107.484 22.3438C106.755 23.125 105.932 23.6875 105.016 24.0312C104.349 24.2812 103.651 24.4062 102.922 24.4062Z" fill="#B2E552"/>
</svg>
